<svg width="26" height="22" viewBox="0 0 26 22" fill="none" xmlns="http://www.w3.org/2000/svg">
<path d="M1.05026 10.0008H24.9497C25.5298 10.0008 26 10.4481 26 11C26 11.5518 25.5298 11.9991 24.9497 11.9991H1.05026C0.470184 11.9991 0 11.5518 0 11C0 10.4482 0.470184 10.0008 1.05026 10.0008Z" fill="#4C699B"/>
<path d="M1.05026 -3.05176e-05H24.9497C25.5298 -3.05176e-05 26 0.447325 26 0.999127C26 1.55093 25.5298 1.99828 24.9497 1.99828H1.05026C0.470184 1.99828 0 1.55093 0 0.999127C0 0.447325 0.470184 -3.05176e-05 1.05026 -3.05176e-05Z" fill="#4C699B"/>
<path d="M1.05026 20.0019H24.9497C25.5298 20.0019 26 20.4492 26 21.0011C26 21.5529 25.5298 22.0002 24.9497 22.0002H1.05026C0.470184 22.0002 0 21.5529 0 21.0011C0 20.4492 0.470184 20.0019 1.05026 20.0019Z" fill="#4C699B"/>
</svg>
