<svg width="28" height="28" viewBox="0 0 28 28" fill="none" xmlns="http://www.w3.org/2000/svg">
<path d="M11.75 4.5C11.75 4.36193 11.8619 4.25 12 4.25H16C16.1381 4.25 16.25 4.36193 16.25 4.5C16.25 4.63807 16.1381 4.75 16 4.75H12C11.8619 4.75 11.75 4.63807 11.75 4.5Z" fill="white"/>
<path d="M11 6.25C10.8619 6.25 10.75 6.36193 10.75 6.5C10.75 6.63807 10.8619 6.75 11 6.75H17C17.1381 6.75 17.25 6.63807 17.25 6.5C17.25 6.36193 17.1381 6.25 17 6.25H11Z" fill="white"/>
<path d="M9.75 8.5C9.75 8.36193 9.86193 8.25 10 8.25H18C18.1381 8.25 18.25 8.36193 18.25 8.5C18.25 8.63807 18.1381 8.75 18 8.75H10C9.86193 8.75 9.75 8.63807 9.75 8.5Z" fill="white"/>
<path fill-rule="evenodd" clip-rule="evenodd" d="M2 8L14 2L26 8V25C26 25.5523 25.5523 26 25 26H24.2727C23.7204 26 23.2727 25.5523 23.2727 25V12.25L4.72727 12.25V25C4.72727 25.5523 4.27956 26 3.72727 26H3C2.44772 26 2 25.5523 2 25V8ZM14 2.55902L25.5 8.30902V10H2.5V8.30902L14 2.55902ZM4.72727 11.75L23.2727 11.75V10.5H4.72727V11.75ZM2.5 10.5V25C2.5 25.2761 2.72386 25.5 3 25.5H3.72727C4.00342 25.5 4.22727 25.2761 4.22727 25V10.5H2.5ZM23.7727 10.5V25C23.7727 25.2761 23.9966 25.5 24.2727 25.5H25C25.2761 25.5 25.5 25.2761 25.5 25V10.5H23.7727Z" fill="white"/>
</svg>
