<svg width="28" height="28" viewBox="0 0 28 28" fill="none" xmlns="http://www.w3.org/2000/svg">
<path d="M7 10.1129C7 10.5307 6.77614 10.8694 6.5 10.8694C6.22386 10.8694 6 10.5307 6 10.1129C6 9.69508 6.22386 9.35637 6.5 9.35637C6.77614 9.35637 7 9.69508 7 10.1129Z" fill="white"/>
<path d="M6.5 20.9565C6.77614 20.9565 7 20.6178 7 20.1999C7 19.7821 6.77614 19.4434 6.5 19.4434C6.22386 19.4434 6 19.7821 6 20.1999C6 20.6178 6.22386 20.9565 6.5 20.9565Z" fill="white"/>
<path d="M22 10.1129C22 10.5307 21.7761 10.8694 21.5 10.8694C21.2239 10.8694 21 10.5307 21 10.1129C21 9.69508 21.2239 9.35637 21.5 9.35637C21.7761 9.35637 22 9.69508 22 10.1129Z" fill="white"/>
<path d="M21.5 20.9565C21.7761 20.9565 22 20.6178 22 20.1999C22 19.7821 21.7761 19.4434 21.5 19.4434C21.2239 19.4434 21 19.7821 21 20.1999C21 20.6178 21.2239 20.9565 21.5 20.9565Z" fill="white"/>
<path d="M14.5 10.1129C14.5 10.5307 14.2761 10.8694 14 10.8694C13.7239 10.8694 13.5 10.5307 13.5 10.1129C13.5 9.69508 13.7239 9.35637 14 9.35637C14.2761 9.35637 14.5 9.69508 14.5 10.1129Z" fill="white"/>
<path d="M14 20.9565C14.2761 20.9565 14.5 20.6178 14.5 20.1999C14.5 19.7821 14.2761 19.4434 14 19.4434C13.7239 19.4434 13.5 19.7821 13.5 20.1999C13.5 20.6178 13.7239 20.9565 14 20.9565Z" fill="white"/>
<path fill-rule="evenodd" clip-rule="evenodd" d="M3.5 11.3738V18.9391H2.5C2.22386 18.9391 2 19.1649 2 19.4434V20.9565C2 21.235 2.22386 21.4608 2.5 21.4608H3.5V25.4956C3.5 25.7742 3.72386 26 4 26H9C9.27614 26 9.5 25.7742 9.5 25.4956V21.4608H11V25.4956C11 25.7742 11.2239 26 11.5 26H16.5C16.7761 26 17 25.7742 17 25.4956V21.4608H18.5V25.4956C18.5 25.7742 18.7239 26 19 26H24C24.2761 26 24.5 25.7742 24.5 25.4956V21.4608H25.5C25.7761 21.4608 26 21.235 26 20.9565V19.4434C26 19.1649 25.7761 18.9391 25.5 18.9391H24.5V11.3738H25.5C25.7761 11.3738 26 11.148 26 10.8694V9.35637C26 9.07783 25.7761 8.85202 25.5 8.85202H24.5V5.02611C24.5 4.89235 24.4473 4.76407 24.3536 4.66948L21.8536 2.14772C21.6583 1.95076 21.3417 1.95076 21.1464 2.14772L18.6464 4.66948C18.5527 4.76407 18.5 4.89235 18.5 5.02611V8.85202H17V5.02611C17 4.89235 16.9473 4.76407 16.8536 4.66948L14.3536 2.14772C14.1583 1.95076 13.8417 1.95076 13.6464 2.14772L11.1464 4.66948C11.0527 4.76407 11 4.89235 11 5.02611V8.85202H9.5V5.02611C9.5 4.89235 9.44732 4.76407 9.35355 4.66948L6.85355 2.14772C6.65829 1.95076 6.34171 1.95076 6.14645 2.14772L3.64645 4.66948C3.55268 4.76407 3.5 4.89235 3.5 5.02611V8.85202H2.5C2.22386 8.85202 2 9.07783 2 9.35637V10.8694C2 11.148 2.22386 11.3738 2.5 11.3738H3.5ZM9 25.4956L9 5.02611L6.5 2.50435L4 5.02611L4 25.4956H9ZM25.5 19.4434H24.5V20.9565H25.5V19.4434ZM24 5.02611L21.5 2.50435L19 5.02611V25.4956H24V5.02611ZM3.5 19.4434V20.9565H2.5V19.4434H3.5ZM17 20.9565H18.5V19.4434H17V20.9565ZM17 18.9391H18.5V11.3738H17V18.9391ZM16.5 5.02611L14 2.50435L11.5 5.02611V25.4956H16.5V5.02611ZM9.5 19.4434H11V20.9565H9.5V19.4434ZM11 18.9391H9.5V11.3738H11V18.9391ZM24.5 10.8694H25.5V9.35637H24.5V10.8694ZM3.5 9.35637V10.8694H2.5V9.35637H3.5ZM17 9.35637V10.8694H18.5V9.35637H17ZM11 9.35637V10.8694H9.5V9.35637H11Z" fill="white"/>
</svg>
