<svg width="28" height="28" viewBox="0 0 28 28" fill="none" xmlns="http://www.w3.org/2000/svg">
<path fill-rule="evenodd" clip-rule="evenodd" d="M5.5 6.5C4.94772 6.5 4.5 6.94772 4.5 7.5V14.5C4.5 15.0523 4.94772 15.5 5.5 15.5H9.5C10.0523 15.5 10.5 15.0523 10.5 14.5V7.5C10.5 6.94772 10.0523 6.5 9.5 6.5H5.5ZM8.03552 7H5.5C5.22386 7 5 7.22386 5 7.5V10.0355L8.03552 7ZM8.74263 7L5 10.7426V11.8033L9.74135 7.062C9.66979 7.02249 9.58752 7 9.5 7H8.74263ZM5 14.5V12.5105L10 7.51045V14.5C10 14.7761 9.77614 15 9.5 15H5.5C5.22386 15 5 14.7761 5 14.5Z" fill="white"/>
<path fill-rule="evenodd" clip-rule="evenodd" d="M12 6.5C11.4477 6.5 11 6.94772 11 7.5V14.5C11 15.0523 11.4477 15.5 12 15.5H16C16.5523 15.5 17 15.0523 17 14.5V7.5C17 6.94772 16.5523 6.5 16 6.5H12ZM15.2426 7H16C16.0875 7 16.1698 7.02249 16.2413 7.062L11.5 11.8033V10.7426L15.2426 7ZM14.5355 7L11.5 10.0355V7.5C11.5 7.22386 11.7239 7 12 7H14.5355ZM11.5 12.5105L16.5 7.51045V14.5C16.5 14.7761 16.2761 15 16 15H12C11.7239 15 11.5 14.7761 11.5 14.5V12.5105Z" fill="white"/>
<path fill-rule="evenodd" clip-rule="evenodd" d="M3 4H2V3C2 2.44772 2.44772 2 3 2H18.5C19.0523 2 19.5 2.44772 19.5 3V4H18.5V24H19V16.5C19 15.9477 19.4477 15.5 20 15.5H21C21.5523 15.5 22 15.9477 22 16.5H25C25.5523 16.5 26 16.9477 26 17.5V18H22V24H25C25.5523 24 26 24.4477 26 25V26H2V25C2 24.4477 2.44772 24 3 24V4ZM3 2.5H18.5C18.7761 2.5 19 2.72386 19 3V3.5H2.5V3C2.5 2.72386 2.72386 2.5 3 2.5ZM21.5 16.5C21.5 16.2239 21.2761 16 21 16H20C19.7239 16 19.5 16.2239 19.5 16.5V24H21.5V16.5ZM22 17.5H25.5C25.5 17.2239 25.2761 17 25 17H22V17.5ZM25 24.5C25.2761 24.5 25.5 24.7239 25.5 25V25.5H2.5V25C2.5 24.7239 2.72386 24.5 3 24.5H25ZM3.5 4V24H18V4H3.5Z" fill="white"/>
</svg>
