<svg width="28" height="28" viewBox="0 0 28 28" fill="none" xmlns="http://www.w3.org/2000/svg">
<path d="M7.87234 6V22M7.87234 6L25.1212 8.71863C25.6252 8.79807 26 9.28071 26 9.85031V18.693C26 19.2746 25.6096 19.7635 25.0931 19.8286L7.87234 22M7.87234 6L4.55319 7.93789M7.87234 22L4.55319 20.3851M4.55319 7.93789L2.54887 9.10811C2.21153 9.30507 2 9.69556 2 10.1214V18.3935C2 18.8485 2.24119 19.2602 2.61407 19.4416L4.55319 20.3851M4.55319 7.93789V20.3851M11.9574 8.6247L10.5459 8.43728C9.93839 8.35663 9.40426 8.88762 9.40426 9.57218V18.4705C9.40426 19.1397 9.91585 19.6658 10.5118 19.6093L11.9574 19.4722M11.9574 8.6247V19.4722M11.9574 8.6247L14.5106 8.96368M11.9574 19.4722L14.5106 19.23M14.5106 8.96368V19.23M14.5106 8.96368L16.8085 9.26877M14.5106 19.23L16.8085 19.0121M16.8085 9.26877V19.0121M16.8085 9.26877L19.3617 9.60775M16.8085 19.0121L19.3617 18.77M19.3617 9.60775V18.77M19.3617 9.60775L21.9149 9.94673M19.3617 18.77L21.9149 18.5278M21.9149 9.94673L23.5671 10.1661C24.081 10.2343 24.4681 10.7219 24.4681 11.301V17.2356C24.4681 17.8294 24.0618 18.3242 23.533 18.3744L21.9149 18.5278M21.9149 9.94673V18.5278M6.34043 12.2857V16.2857M3.02128 12.2857V15.7143" stroke="white" stroke-width="0.5" stroke-linecap="round"/>
</svg>
