<svg width="28" height="28" viewBox="0 0 28 28" fill="none" xmlns="http://www.w3.org/2000/svg">
<path fill-rule="evenodd" clip-rule="evenodd" d="M21.2 5.5C21.7891 5.5 22.2667 5.05228 22.2667 4.5C22.2667 3.94772 21.7891 3.5 21.2 3.5C20.6109 3.5 20.1333 3.94772 20.1333 4.5C20.1333 5.05228 20.6109 5.5 21.2 5.5ZM21.2 5C21.4946 5 21.7333 4.77614 21.7333 4.5C21.7333 4.22386 21.4946 4 21.2 4C20.9054 4 20.6667 4.22386 20.6667 4.5C20.6667 4.77614 20.9054 5 21.2 5Z" fill="white"/>
<path fill-rule="evenodd" clip-rule="evenodd" d="M8.93333 9.5C8.93333 10.0523 8.45577 10.5 7.86667 10.5C7.27756 10.5 6.8 10.0523 6.8 9.5C6.8 8.94772 7.27756 8.5 7.86667 8.5C8.45577 8.5 8.93333 8.94772 8.93333 9.5ZM8.4 9.5C8.4 9.77614 8.16122 10 7.86667 10C7.57212 10 7.33333 9.77614 7.33333 9.5C7.33333 9.22386 7.57212 9 7.86667 9C8.16122 9 8.4 9.22386 8.4 9.5Z" fill="white"/>
<path fill-rule="evenodd" clip-rule="evenodd" d="M9.46667 11.5002L9.46744 11.4996L19.827 6.6436C19.9252 6.69898 20.0275 6.74861 20.1333 6.79198V11.75H18.7014L16.6667 13.385V16.1134L18.9665 18H20.0315L18.8 15.691V14.4386L20.4374 14H21.9672L23.8667 14.4452V15.691L22.6352 18H23.7002L26 16.1134V13.385L23.9653 11.75H22.2667V6.79198C23.2085 6.4062 23.8667 5.52516 23.8667 4.5C23.8667 3.11929 22.6728 2 21.2 2C19.8671 2 18.7626 2.91677 18.5649 4.11441L7.78799 7.00107C6.35162 7.04009 5.2 8.14396 5.2 9.5C5.2 10.3179 5.61896 11.0441 6.26667 11.5002V18H5.2C4.6109 18 4.13333 18.4477 4.13333 19V24H3.06667C2.47756 24 2 24.4477 2 25V26H13.7333V25C13.7333 24.4477 13.2558 24 12.6667 24H11.6V19C11.6 18.4477 11.1224 18 10.5333 18H9.46667V11.5002ZM21.2 6.5C22.3782 6.5 23.3333 5.60457 23.3333 4.5C23.3333 3.39543 22.3782 2.5 21.2 2.5C20.0218 2.5 19.0667 3.39543 19.0667 4.5C19.0667 5.13324 19.3806 5.69774 19.8705 6.0642L19.8948 6.05279L19.9201 6.10024C20.2767 6.35126 20.7198 6.5 21.2 6.5ZM18.5375 4.64173C18.5765 5.29483 18.8828 5.88099 19.3556 6.30556L10.2834 10.5581C10.4438 10.2368 10.5333 9.87821 10.5333 9.5C10.5333 8.47819 9.87944 7.59956 8.94255 7.21182L18.5375 4.64173ZM22.2667 12.25V13.5548L24.4 14.0548V15.809L23.4981 17.5H23.4998L25.4667 15.8866V13.615L23.768 12.25H22.2667ZM21.7333 6.94999C21.561 6.98278 21.3826 7 21.2 7C21.0174 7 20.839 6.98278 20.6667 6.94999V13.5H21.7333V6.94999ZM18.8986 12.25H20.1333V13.5614L18.2667 14.0614V15.809L19.1685 17.5H19.1669L17.2 15.8866V13.615L18.8986 12.25ZM7.86667 7.5C6.68846 7.5 5.73333 8.39543 5.73333 9.5C5.73333 10.2696 6.19701 10.9377 6.87676 11.2721C7.18432 11.3893 7.55678 11.5 7.86667 11.5C8.17655 11.5 8.54901 11.3893 8.85658 11.2721C9.53632 10.9377 10 10.2696 10 9.5C10 8.39543 9.04487 7.5 7.86667 7.5ZM6.8 11.792V18H8.93333V11.792C8.60669 11.9258 8.24592 12 7.86667 12C7.48741 12 7.12665 11.9258 6.8 11.792ZM4.66667 19C4.66667 18.7239 4.90545 18.5 5.2 18.5H10.5333C10.8279 18.5 11.0667 18.7239 11.0667 19V24H4.66667V19ZM3.06667 24.5C2.77211 24.5 2.53333 24.7239 2.53333 25V25.5H13.2V25C13.2 24.7239 12.9612 24.5 12.6667 24.5H3.06667Z" fill="white"/>
</svg>
