<svg width="28" height="28" viewBox="0 0 28 28" fill="none" xmlns="http://www.w3.org/2000/svg">
<path fill-rule="evenodd" clip-rule="evenodd" d="M11.5 5.5C11.5 5.22386 11.7239 5 12 5H16C16.2761 5 16.5 5.22386 16.5 5.5V6.5C16.5 6.77614 16.2761 7 16 7H12C11.7239 7 11.5 6.77614 11.5 6.5V5.5ZM12 5.5H16V6.5H12V5.5Z" fill="white"/>
<path fill-rule="evenodd" clip-rule="evenodd" d="M3 24V6.70043C3 6.27992 3.26307 5.90434 3.65826 5.76063L14 2L24.3417 5.76063C24.7369 5.90434 25 6.27992 25 6.70043V24C25.5523 24 26 24.4477 26 25V26H2V25C2 24.4477 2.44772 24 3 24ZM24.5 6.70043V24H21.5V9C21.5 8.44772 21.0523 8 20.5 8H7.5C6.94772 8 6.5 8.44772 6.5 9V24H3.5V6.70043C3.5 6.49017 3.63153 6.30238 3.82913 6.23053L14 2.53203L24.1709 6.23053C24.3685 6.30238 24.5 6.49017 24.5 6.70043ZM21 15.1338V11.5H7V24H12V20.5C12 19.9477 12.4477 19.5 13 19.5H16.5V16C16.5 15.4477 16.9477 15 17.5 15H20.5C20.6821 15 20.8529 15.0487 21 15.1338ZM21 10V11H7V10H21ZM21 9.5V9C21 8.72386 20.7761 8.5 20.5 8.5H7.5C7.22386 8.5 7 8.72386 7 9V9.5H21ZM25 24.5C25.2761 24.5 25.5 24.7239 25.5 25V25.5H2.5V25C2.5 24.7239 2.72386 24.5 3 24.5H25ZM16.5 24H12.5V20.5C12.5 20.2239 12.7239 20 13 20H13.5V20.5C13.5 20.7761 13.7239 21 14 21H15C15.2761 21 15.5 20.7761 15.5 20.5V20H16.5V24ZM21 24H17V20H18V20.5C18 20.7761 18.2239 21 18.5 21H19.5C19.7761 21 20 20.7761 20 20.5V20H21V24ZM21 16V19.5H17V16C17 15.7239 17.2239 15.5 17.5 15.5H18V16C18 16.2761 18.2239 16.5 18.5 16.5H19.5C19.7761 16.5 20 16.2761 20 16V15.5H20.5C20.7761 15.5 21 15.7239 21 16ZM15 20H14V20.5H15V20ZM18.5 15.5V16H19.5V15.5H18.5ZM18.5 20.5V20H19.5V20.5H18.5Z" fill="white"/>
</svg>
