<svg width="28" height="28" viewBox="0 0 28 28" fill="none" xmlns="http://www.w3.org/2000/svg">
<path fill-rule="evenodd" clip-rule="evenodd" d="M6.59574 6.60926C6.59574 6.39122 6.73639 6.19764 6.9449 6.12869L8.98746 5.45328C9.31811 5.34394 9.65957 5.58809 9.65957 5.93384V23.4672C9.65957 23.747 9.43095 23.9738 9.14894 23.9738H7.10638C6.82437 23.9738 6.59574 23.747 6.59574 23.4672V6.60926ZM7.10638 6.60926L9.14894 5.93384V23.4672H7.10638V6.60926Z" fill="white"/>
<path fill-rule="evenodd" clip-rule="evenodd" d="M10.5116 5.16681C10.3071 5.23809 10.1702 5.42969 10.1702 5.64473V23.4672C10.1702 23.747 10.3988 23.9738 10.6809 23.9738H12.7234C13.0054 23.9738 13.234 23.747 13.234 23.4672V4.9328C13.234 4.5836 12.8862 4.33913 12.5541 4.45489L10.5116 5.16681ZM12.7234 4.9328L10.6809 5.64473V23.4672H12.7234V4.9328Z" fill="white"/>
<path fill-rule="evenodd" clip-rule="evenodd" d="M21.4043 6.60926C21.4043 6.39122 21.2636 6.19764 21.0551 6.12869L19.0125 5.45328C18.6819 5.34394 18.3404 5.58809 18.3404 5.93384V23.4672C18.3404 23.747 18.569 23.9738 18.8511 23.9738H20.8936C21.1756 23.9738 21.4043 23.747 21.4043 23.4672V6.60926ZM20.8936 6.60926L18.8511 5.93384V23.4672H20.8936V6.60926Z" fill="white"/>
<path fill-rule="evenodd" clip-rule="evenodd" d="M17.4884 5.16681C17.6929 5.23809 17.8298 5.42969 17.8298 5.64473V23.4672C17.8298 23.747 17.6012 23.9738 17.3191 23.9738H15.2766C14.9946 23.9738 14.766 23.747 14.766 23.4672V4.9328C14.766 4.5836 15.1138 4.33913 15.4459 4.45489L17.4884 5.16681ZM15.2766 4.9328L17.3191 5.64473V23.4672H15.2766V4.9328Z" fill="white"/>
<path fill-rule="evenodd" clip-rule="evenodd" d="M5.57447 26C5.85649 26 6.08511 25.7732 6.08511 25.4934H13.7447C13.8377 25.4934 13.9249 25.4688 14 25.4257C14.0751 25.4688 14.1623 25.4934 14.2553 25.4934H21.9149C21.9149 25.7732 22.1435 26 22.4255 26H25.4894C25.7714 26 26 25.7732 26 25.4934V4.44658C26 4.33333 25.9617 4.22335 25.8913 4.1342L24.3594 2.19418C24.155 1.93527 23.7599 1.93527 23.5555 2.19418L22.0235 4.1342C21.9531 4.22335 21.9149 4.33333 21.9149 4.44658V4.88496L14.4163 2.41308C14.2693 2.36462 14.1202 2.38599 14 2.45506C13.8798 2.38599 13.7307 2.36462 13.5837 2.41308L6.08511 4.88496V4.44658C6.08511 4.33333 6.04685 4.22335 5.97646 4.1342L4.44454 2.19418C4.24009 1.93527 3.84501 1.93527 3.64056 2.19418L2.10865 4.1342C2.03825 4.22335 2 4.33333 2 4.44658V25.4934C2 25.7732 2.22862 26 2.51064 26H5.57447ZM5.57447 4.44658L4.04255 2.50656L2.51064 4.44658V25.4934H5.57447V4.44658ZM13.7447 2.89379L6.08511 5.41875V24.9869H13.7447L13.7447 2.89379ZM22.4255 25.4934H25.4894V4.44658L23.9574 2.50656L22.4255 4.44658V25.4934ZM21.9149 5.41875L14.2553 2.89379V24.9869H21.9149V5.41875Z" fill="white"/>
</svg>
