<svg width="28" height="28" viewBox="0 0 28 28" fill="none" xmlns="http://www.w3.org/2000/svg">
<path fill-rule="evenodd" clip-rule="evenodd" d="M12.5 9.5C12.5 8.94771 12.9477 8.5 13.5 8.5H22C22.5523 8.5 23 8.94772 23 9.5V19.5C23 20.0523 22.5523 20.5 22 20.5H13.5C12.9477 20.5 12.5 20.0523 12.5 19.5V9.5ZM18.0104 10.5H16.7426L13 14.2426V15.5104L18.0104 10.5ZM22.5 10V9.5C22.5 9.22386 22.2761 9 22 9H13.5C13.2239 9 13 9.22386 13 9.5V10H22.5ZM13 10.5V13.5355L16.0355 10.5H13ZM22.5 10.5V19.5C22.5 19.7761 22.2761 20 22 20H13.5C13.2239 20 13 19.7761 13 19.5V16.2175L18.7175 10.5H22.5Z" fill="white"/>
<path fill-rule="evenodd" clip-rule="evenodd" d="M6 8.5C5.44772 8.5 5 8.94772 5 9.5V10.5H11V9.5C11 8.94772 10.5523 8.5 10 8.5H6ZM10 9H6C5.72386 9 5.5 9.22386 5.5 9.5V10H10.5V9.5C10.5 9.22386 10.2761 9 10 9Z" fill="white"/>
<path d="M9.5 18.5C9.77614 18.5 10 18.2761 10 18C10 17.7239 9.77614 17.5 9.5 17.5C9.22386 17.5 9 17.7239 9 18C9 18.2761 9.22386 18.5 9.5 18.5Z" fill="white"/>
<path fill-rule="evenodd" clip-rule="evenodd" d="M25 4V24C25.5523 24 26 24.4477 26 25V26H2V25C2 24.4477 2.44772 24 3 24V4H2V3C2 2.44772 2.44772 2 3 2H25C25.5523 2 26 2.44772 26 3V4H25ZM3 2.5H25C25.2761 2.5 25.5 2.72386 25.5 3V3.5H2.5V3C2.5 2.72386 2.72386 2.5 3 2.5ZM24.5 4V6H3.5V4H24.5ZM3.5 24V6.5H24.5V24H11V12.5C11 11.9477 10.5523 11.5 10 11.5H6C5.44772 11.5 5 11.9477 5 12.5V24H3.5ZM10.5 24H5.5V12.5C5.5 12.2239 5.72386 12 6 12H10C10.2761 12 10.5 12.2239 10.5 12.5V24ZM25 24.5C25.2761 24.5 25.5 24.7239 25.5 25V25.5H2.5V25C2.5 24.7239 2.72386 24.5 3 24.5H25Z" fill="white"/>
</svg>
