<svg width="28" height="28" viewBox="0 0 28 28" fill="none" xmlns="http://www.w3.org/2000/svg">
<path fill-rule="evenodd" clip-rule="evenodd" d="M19 4C18.4477 4 18 4.44772 18 5V8C18 8.55228 18.4477 9 19 9H22C22.5523 9 23 8.55228 23 8V5C23 4.44772 22.5523 4 22 4H19ZM22 4.5H19C18.7239 4.5 18.5 4.72386 18.5 5V8C18.5 8.27614 18.7239 8.5 19 8.5H22C22.2761 8.5 22.5 8.27614 22.5 8V5C22.5 4.72386 22.2761 4.5 22 4.5Z" fill="white"/>
<path fill-rule="evenodd" clip-rule="evenodd" d="M11.5 5C11.5 4.44772 11.9477 4 12.5 4H15.5C16.0523 4 16.5 4.44772 16.5 5V8C16.5 8.55228 16.0523 9 15.5 9H12.5C11.9477 9 11.5 8.55228 11.5 8V5ZM12.5 4.5H15.5C15.7761 4.5 16 4.72386 16 5V8C16 8.27614 15.7761 8.5 15.5 8.5H12.5C12.2239 8.5 12 8.27614 12 8V5C12 4.72386 12.2239 4.5 12.5 4.5Z" fill="white"/>
<path fill-rule="evenodd" clip-rule="evenodd" d="M6 4C5.44772 4 5 4.44772 5 5V8C5 8.55228 5.44772 9 6 9H9C9.55228 9 10 8.55228 10 8V5C10 4.44772 9.55228 4 9 4H6ZM9 4.5H6C5.72386 4.5 5.5 4.72386 5.5 5V8C5.5 8.27614 5.72386 8.5 6 8.5H9C9.27614 8.5 9.5 8.27614 9.5 8V5C9.5 4.72386 9.27614 4.5 9 4.5Z" fill="white"/>
<path fill-rule="evenodd" clip-rule="evenodd" d="M5 11.5C5 10.9477 5.44772 10.5 6 10.5H9C9.55228 10.5 10 10.9477 10 11.5V14.5C10 15.0523 9.55228 15.5 9 15.5H6C5.44772 15.5 5 15.0523 5 14.5V11.5ZM6 11H9C9.27614 11 9.5 11.2239 9.5 11.5V14.5C9.5 14.7761 9.27614 15 9 15H6C5.72386 15 5.5 14.7761 5.5 14.5V11.5C5.5 11.2239 5.72386 11 6 11Z" fill="white"/>
<path fill-rule="evenodd" clip-rule="evenodd" d="M12.5 10.5C11.9477 10.5 11.5 10.9477 11.5 11.5V14.5C11.5 15.0523 11.9477 15.5 12.5 15.5H15.5C16.0523 15.5 16.5 15.0523 16.5 14.5V11.5C16.5 10.9477 16.0523 10.5 15.5 10.5H12.5ZM15.5 11H12.5C12.2239 11 12 11.2239 12 11.5V14.5C12 14.7761 12.2239 15 12.5 15H15.5C15.7761 15 16 14.7761 16 14.5V11.5C16 11.2239 15.7761 11 15.5 11Z" fill="white"/>
<path fill-rule="evenodd" clip-rule="evenodd" d="M18 11.5C18 10.9477 18.4477 10.5 19 10.5H22C22.5523 10.5 23 10.9477 23 11.5V14.5C23 15.0523 22.5523 15.5 22 15.5H19C18.4477 15.5 18 15.0523 18 14.5V11.5ZM19 11H22C22.2761 11 22.5 11.2239 22.5 11.5V14.5C22.5 14.7761 22.2761 15 22 15H19C18.7239 15 18.5 14.7761 18.5 14.5V11.5C18.5 11.2239 18.7239 11 19 11Z" fill="white"/>
<path fill-rule="evenodd" clip-rule="evenodd" d="M3 3V24C2.44772 24 2 24.4477 2 25V26H26V25C26 24.4477 25.5523 24 25 24V3C25 2.44772 24.5523 2 24 2H4C3.44772 2 3 2.44772 3 3ZM24 2.5H4C3.72386 2.5 3.5 2.72386 3.5 3V24H8.5V19C8.5 18.4477 8.94772 18 9.5 18H18.5C19.0523 18 19.5 18.4477 19.5 19V24H24.5V3C24.5 2.72386 24.2761 2.5 24 2.5ZM3 24.5C2.72386 24.5 2.5 24.7239 2.5 25V25.5H25.5V25C25.5 24.7239 25.2761 24.5 25 24.5H3ZM19 24V19C19 18.7239 18.7761 18.5 18.5 18.5H9.5C9.22386 18.5 9 18.7239 9 19V24H19Z" fill="white"/>
</svg>
