<svg width="28" height="28" viewBox="0 0 28 28" fill="none" xmlns="http://www.w3.org/2000/svg">
<path fill-rule="evenodd" clip-rule="evenodd" d="M3.21801 8.66001L8 5.73865V20.4458L2.5 18.1958V9.94004C2.5 9.41742 2.77202 8.93247 3.21801 8.66001ZM2.5171 18.743C2.58828 19.2104 2.87748 19.6224 3.30417 19.8458L8 22.3047V20.986L2.5171 18.743ZM8.5 22.4607V21.0424L25.4485 19.1935C25.2952 19.7629 24.814 20.2047 24.2055 20.2889L8.5 22.4607ZM25.5 18.6849L8.5 20.5394V5.55452L24.272 8.46255C24.9835 8.59374 25.5 9.21415 25.5 9.93768V18.6849ZM2.95735 8.23333L8.25 5L24.3626 7.97083C25.3114 8.14576 26 8.97298 26 9.93768V18.803C26 19.8017 25.2633 20.6473 24.274 20.7841L8.25 23L3.07223 20.2887C2.41306 19.9436 2 19.261 2 18.5169V9.94004C2 9.24321 2.3627 8.59661 2.95735 8.23333ZM5.25 9.79765L6.30041 9.34033C6.63066 9.19655 7 9.43858 7 9.79877V18.3949C7 18.7475 6.64481 18.9893 6.31674 18.8601L5.25 18.4399V9.79765ZM4.75 10.0153V18.2429L3.81674 17.8753C3.62563 17.8 3.5 17.6155 3.5 17.4101V10.8872C3.5 10.6882 3.61798 10.5082 3.80041 10.4288L4.75 10.0153ZM3 10.8872C3 10.4893 3.23595 10.1292 3.60082 9.97033L6.10082 8.8819C6.76132 8.59433 7.5 9.07838 7.5 9.79877V18.3949C7.5 19.1001 6.78963 19.5838 6.13348 19.3253L3.63348 18.3405C3.25125 18.1899 3 17.8209 3 17.4101V10.8872ZM11.6066 9.57138L12.9985 9.87506L11 12.4516V10.0599C11 9.7408 11.2948 9.50336 11.6066 9.57138ZM11 13.2674L13.5397 9.99314L14.05 10.1045L11 14.319V13.2674ZM17.1066 10.7714L14.583 10.2208L11 15.1719V15.8018C11 16.1137 11.2825 16.3495 11.5894 16.2937L17.0894 15.2937C17.3272 15.2505 17.5 15.0434 17.5 14.8018V11.2599C17.5 11.0248 17.3363 10.8215 17.1066 10.7714ZM10.5 10.0599C10.5 9.42172 11.0897 8.94684 11.7132 9.08287L17.2132 10.2829C17.6725 10.3831 18 10.7897 18 11.2599V14.8018C18 15.2851 17.6544 15.6992 17.1789 15.7857L11.6789 16.7857C11.065 16.8973 10.5 16.4257 10.5 15.8018V10.0599ZM21.1255 11.4999L20.5807 11.4108C20.2764 11.361 20 11.5958 20 11.9042V12.9031L21.1255 11.4999ZM21.4655 11.5555L20 13.3826V14.0111L21.9766 11.6392L21.4655 11.5555ZM22.3203 11.6954L20.0004 14.4793C20.012 14.7778 20.283 15.0016 20.5807 14.9529L23.5807 14.462C23.8225 14.4224 24 14.2135 24 13.9685V12.3951C24 12.1501 23.8225 11.9412 23.5807 11.9017L22.3203 11.6954ZM20.6615 10.9173C20.0528 10.8177 19.5 11.2875 19.5 11.9042V14.4594C19.5 15.0762 20.0528 15.5459 20.6615 15.4463L23.6615 14.9554C24.145 14.8763 24.5 14.4585 24.5 13.9685V12.3951C24.5 11.9052 24.145 11.4874 23.6615 11.4082L20.6615 10.9173Z" fill="white"/>
</svg>
