<svg width="28" height="28" viewBox="0 0 28 28" fill="none" xmlns="http://www.w3.org/2000/svg">
<path fill-rule="evenodd" clip-rule="evenodd" d="M11.5 5.13043C11.5 4.55414 11.9477 4.08696 12.5 4.08696H19.5C20.0523 4.08696 20.5 4.55414 20.5 5.13043V10.3478C20.5 10.9241 20.0523 11.3913 19.5 11.3913H12.5C11.9477 11.3913 11.5 10.9241 11.5 10.3478V5.13043ZM15.954 4.6087H17.1389L12 9.75458V8.58268L15.961 4.61629L15.954 4.6087ZM15.2465 4.6087H12.5C12.2239 4.6087 12 4.84229 12 5.13043V7.85957L15.2465 4.6087ZM17.8535 4.61629L17.8465 4.6087H19.5C19.7761 4.6087 20 4.84229 20 5.13043V10.3478C20 10.636 19.7761 10.8696 19.5 10.8696H12.5C12.2625 10.8696 12.0636 10.6967 12.0127 10.465L17.8535 4.61629Z" fill="white"/>
<path fill-rule="evenodd" clip-rule="evenodd" d="M5.5 15.0435C4.94772 15.0435 4.5 15.5107 4.5 16.087V21.3043C4.5 21.8806 4.94772 22.3478 5.5 22.3478H12.5C13.0523 22.3478 13.5 21.8806 13.5 21.3043V16.087C13.5 15.5107 13.0523 15.0435 12.5 15.0435H5.5ZM12.5 15.5652H10.8465L10.8535 15.5728L5.01266 21.4215C5.06363 21.6533 5.26247 21.8261 5.5 21.8261H12.5C12.7761 21.8261 13 21.5925 13 21.3043V16.087C13 15.7988 12.7761 15.5652 12.5 15.5652ZM5 20.7111L10.1389 15.5652H8.95403L8.96102 15.5728L5 19.5392V20.7111ZM5 18.8161L8.24648 15.5652H5.5C5.22386 15.5652 5 15.7988 5 16.087V18.8161Z" fill="white"/>
<path d="M21 19.2174C21 19.0733 20.8881 18.9565 20.75 18.9565C20.6119 18.9565 20.5 19.0733 20.5 19.2174V20.2609C20.5 20.4049 20.6119 20.5217 20.75 20.5217C20.8881 20.5217 21 20.4049 21 20.2609V19.2174Z" fill="white"/>
<path fill-rule="evenodd" clip-rule="evenodd" d="M4.5 12.9565V3.04348C4.5 2.46718 4.94772 2 5.5 2H21C21.5523 2 22 2.46718 22 3.04348V12.9565H24C24.5523 12.9565 25 13.4237 25 14V23.913C25.5523 23.913 26 24.3802 26 24.9565V26H2V24.9565C2 24.3802 2.44772 23.913 3 23.913V14C3 13.4237 3.44772 12.9565 4 12.9565H4.5ZM5.5 2.52174H21C21.2761 2.52174 21.5 2.75533 21.5 3.04348V12.9565H5V3.04348C5 2.75533 5.22386 2.52174 5.5 2.52174ZM24 13.4783C24.2761 13.4783 24.5 13.7119 24.5 14V23.913H22.5C22.5 23.5268 22.2989 23.1896 22 23.0092V17.1304C22 16.5541 21.5523 16.087 21 16.087H18.5C17.9477 16.087 17.5 16.5541 17.5 17.1304V23.0092C17.2011 23.1896 17 23.5268 17 23.913H3.5V14C3.5 13.7119 3.72386 13.4783 4 13.4783H24ZM25 24.4348C25.2761 24.4348 25.5 24.6684 25.5 24.9565V25.4783H2.5V24.9565C2.5 24.6684 2.72386 24.4348 3 24.4348H25ZM21.5 23.3913C21.7761 23.3913 22 23.6249 22 23.913H17.5C17.5 23.6249 17.7239 23.3913 18 23.3913H21.5ZM21.5 17.1304V22.8696H18V17.1304C18 16.8423 18.2239 16.6087 18.5 16.6087H21C21.2761 16.6087 21.5 16.8423 21.5 17.1304Z" fill="white"/>
</svg>
