<svg width="28" height="28" viewBox="0 0 28 28" fill="none" xmlns="http://www.w3.org/2000/svg">
<path fill-rule="evenodd" clip-rule="evenodd" d="M11.5 6.5C11.5 6.22386 11.7239 6 12 6H16C16.2761 6 16.5 6.22386 16.5 6.5V7.5C16.5 7.77614 16.2761 8 16 8H12C11.7239 8 11.5 7.77614 11.5 7.5V6.5ZM12 7.5V6.5H16V7.5H12Z" fill="white"/>
<path fill-rule="evenodd" clip-rule="evenodd" d="M6.5 24V6.13686C6.5 5.74834 6.72504 5.39498 7.07711 5.23068L14 2L20.9229 5.23068C21.275 5.39498 21.5 5.74834 21.5 6.13686V24H25C25.5523 24 26 24.4477 26 25V26H2V25C2 24.4477 2.44772 24 3 24H6.5ZM21 6.13686V24H18.5V12C18.5 11.4477 18.0523 11 17.5 11H10.5C9.94772 11 9.5 11.4477 9.5 12V24H7V6.13686C7 5.9426 7.11252 5.76592 7.28856 5.68377L14 2.55176L20.7114 5.68377C20.8875 5.76592 21 5.9426 21 6.13686ZM25 24.5C25.2761 24.5 25.5 24.7239 25.5 25V25.5H2.5V25C2.5 24.7239 2.72386 24.5 3 24.5H25ZM18 12V24H17V11.5H17.5C17.7761 11.5 18 11.7239 18 12ZM11.5 24H16.5V11.5H11.5V24ZM11 24H10V12C10 11.7239 10.2239 11.5 10.5 11.5H11V24Z" fill="white"/>
</svg>
