<svg width="32" height="32" viewBox="0 0 32 32" fill="none" xmlns="http://www.w3.org/2000/svg">
<rect width="32" height="32" rx="16" fill="#675DA9"/>
<path d="M23.8357 8.12302C23.3065 7.63644 21.1638 6.07854 16.3877 6.0572C16.3877 6.0572 10.7579 5.71574 8.01341 8.23399C6.48538 9.76202 5.94759 11.9943 5.8921 14.7687C5.83661 17.5387 5.76405 22.7332 10.7707 24.1417H10.775L10.7707 26.2886C10.7707 26.2886 10.7408 27.1593 11.3127 27.3343C12.0042 27.5477 12.414 26.8861 13.0755 26.1734C13.4383 25.7807 13.9377 25.2087 14.3176 24.7691C17.7407 25.0551 20.3742 24.3978 20.673 24.2996C21.3644 24.0734 25.2784 23.574 25.9144 18.3796C26.5717 13.0357 25.5942 9.65104 23.8357 8.12302ZM24.4162 18.004C23.8784 22.3405 20.7071 22.6137 20.1224 22.8015C19.8748 22.8826 17.5614 23.4588 14.6505 23.2667C14.6505 23.2667 12.4822 25.8831 11.8079 26.5618C11.7012 26.6685 11.5774 26.7112 11.4963 26.6898C11.381 26.6599 11.3469 26.5233 11.3512 26.3227C11.3512 26.0325 11.3682 22.7502 11.3682 22.7502C11.364 22.7502 11.364 22.7502 11.3682 22.7502C7.12988 21.5765 7.37744 17.1546 7.42439 14.8412C7.47134 12.5278 7.9067 10.6285 9.19998 9.35227C11.5176 7.2523 16.3023 7.56388 16.3023 7.56388C20.3401 7.58095 22.2736 8.7974 22.7217 9.20288C24.2113 10.4833 24.9711 13.5351 24.4162 18.004Z" fill="white"/>
<path d="M18.3553 14.9223C18.2145 14.9223 18.095 14.8114 18.0864 14.6662C18.0395 13.7486 17.6084 13.3004 16.7291 13.2534C16.5797 13.2449 16.4645 13.1169 16.473 12.9675C16.4816 12.8181 16.6096 12.7028 16.759 12.7114C17.92 12.7754 18.5687 13.4412 18.6285 14.6364C18.637 14.7857 18.5218 14.9138 18.3724 14.9181C18.3639 14.9223 18.3596 14.9223 18.3553 14.9223Z" fill="white"/>
<path d="M19.7382 15.3834H19.7339C19.5846 15.3791 19.465 15.2553 19.4693 15.1059C19.4907 14.184 19.226 13.4371 18.6626 12.8224C18.1035 12.2078 17.3309 11.8749 16.3108 11.8023C16.1614 11.7895 16.0505 11.6615 16.0633 11.5121C16.0761 11.3627 16.2041 11.2517 16.3535 11.2645C17.5059 11.3499 18.4151 11.7511 19.0638 12.4596C19.7169 13.1724 20.0327 14.0645 20.0114 15.1187C20.0071 15.2681 19.8833 15.3834 19.7382 15.3834Z" fill="white"/>
<path d="M21.1553 15.9381C21.0059 15.9381 20.8864 15.8186 20.8864 15.6692C20.8736 14.0174 20.3998 12.7583 19.4352 11.815C18.4834 10.8845 17.2755 10.4108 15.8542 10.398C15.7048 10.398 15.5853 10.2742 15.5853 10.1248C15.5853 9.97541 15.709 9.8559 15.8542 9.8559C17.4206 9.8687 18.7523 10.3937 19.8065 11.4266C20.8651 12.4595 21.4071 13.8851 21.4242 15.6607C21.4285 15.8143 21.309 15.9381 21.1553 15.9381C21.1596 15.9381 21.1596 15.9381 21.1553 15.9381Z" fill="white"/>
<path d="M16.7932 18.2643C16.7932 18.2643 17.173 18.2984 17.3779 18.0466L17.7748 17.5472C17.9669 17.2996 18.4322 17.1417 18.8846 17.3935C19.1364 17.5344 19.5931 17.8161 19.8748 18.0252C20.1779 18.2472 20.7925 18.7594 20.7968 18.7636C21.0913 19.0112 21.1596 19.374 20.9589 19.7624C20.9589 19.7624 20.9589 19.7667 20.9589 19.771C20.7541 20.1337 20.4766 20.4752 20.1309 20.7911C20.1266 20.7911 20.1266 20.7953 20.1224 20.7953C19.8364 21.0343 19.5547 21.1709 19.2815 21.2008C19.2474 21.2093 19.209 21.2093 19.1578 21.2093C19.0382 21.2093 18.9187 21.1923 18.7992 21.1539L18.7907 21.1411C18.3639 21.0215 17.6553 20.7228 16.4773 20.0697C15.709 19.6472 15.0731 19.2161 14.531 18.785C14.245 18.5588 13.9548 18.3069 13.656 18.0082C13.6475 17.9996 13.6347 17.9868 13.6261 17.9783C13.6176 17.9698 13.6048 17.957 13.5963 17.9484C13.5877 17.9399 13.5749 17.9271 13.5664 17.9185C13.5578 17.91 13.545 17.8972 13.5365 17.8887C13.242 17.5899 12.9859 17.2996 12.7597 17.0137C12.3286 16.4759 11.8975 15.8356 11.4749 15.0674C10.8219 13.8851 10.5231 13.1765 10.4036 12.754L10.3908 12.7454C10.3524 12.6259 10.3353 12.5064 10.3353 12.3869C10.3353 12.3357 10.3353 12.2973 10.3439 12.2631C10.378 11.9857 10.5146 11.7083 10.7493 11.4223C10.7493 11.418 10.7536 11.418 10.7536 11.4138C11.0695 11.0638 11.4109 10.7906 11.7737 10.5857C11.7737 10.5857 11.778 10.5857 11.7823 10.5857C12.1664 10.3851 12.5292 10.4534 12.781 10.7479C12.781 10.7479 13.2975 11.3668 13.5194 11.6699C13.7286 11.9558 14.0103 12.4083 14.1511 12.6601C14.4029 13.1125 14.245 13.5778 13.9975 13.7698L13.4981 14.1668C13.2463 14.3716 13.2804 14.7515 13.2804 14.7515C13.2804 14.7515 14.0188 17.56 16.7932 18.2643Z" fill="white"/>
</svg>
